<svg data-name="Group 85" xmlns="http://www.w3.org/2000/svg" width="35" height="24.442" viewBox="0 0 35 24.442">
    <defs>
        <clipPath id="pg6h9trhha">
            <path data-name="Rectangle 91" style="fill:#707070" d="M0 0h35v24.442H0z"/>
        </clipPath>
    </defs>
    <g data-name="Group 84" style="clip-path:url(#pg6h9trhha)">
        <path data-name="Path 2237" d="M33.122 7.56a2.5 2.5 0 0 1-5.007.1.212.212 0 0 0 .016-.1 1.878 1.878 0 1 0-3.755 0 .149.149 0 0 0 .017.083v.033a2.5 2.5 0 0 1-4.991 0v-.033a.124.124 0 0 0 .017-.083 1.878 1.878 0 0 0-3.756 0 .207.207 0 0 0 .017.1 2.5 2.5 0 0 1-4.991 0c0-.033.017-.066.017-.1a1.878 1.878 0 0 0-3.756 0 .207.207 0 0 0 .017.1 2.5 2.5 0 0 1-5.007-.116v-1.3a4.558 4.558 0 0 1 4.546-4.4h22.169a4.535 4.535 0 0 1 4.513 4.068h.012zm1.861-1.63a6.38 6.38 0 0 0-1.845-4.035l-.083-.082A6.331 6.331 0 0 0 28.593 0H6.423A6.429 6.429 0 0 0 1.96 1.812a.279.279 0 0 0-.083.065A6.448 6.448 0 0 0 0 6.259v1.334a4.33 4.33 0 0 0 1.861 3.574v-.033a4.153 4.153 0 0 0 2.5.791 4.354 4.354 0 0 0 3.97-2.536 4.06 4.06 0 0 0 .382-1.319 4.739 4.739 0 0 0 .033-.478 4.739 4.739 0 0 0 .033.478 4.048 4.048 0 0 0 .379 1.318 4.355 4.355 0 0 0 7.906 0 4.171 4.171 0 0 0 .412-1.828.278.278 0 0 0 .017.115 3.942 3.942 0 0 0 .1.873 4.125 4.125 0 0 0 .115.428 3.346 3.346 0 0 0 .181.428.016.016 0 0 0 .016.016 5.117 5.117 0 0 0 .28.511v.017a2.387 2.387 0 0 0 .181.247 2.336 2.336 0 0 0 .181.247 1.433 1.433 0 0 0 .214.231 4.365 4.365 0 0 0 7.05-1.252 4.176 4.176 0 0 0 .412-1.828.288.288 0 0 0 .016.116 3.828 3.828 0 0 0 .1.873 4.063 4.063 0 0 0 .115.428 3.317 3.317 0 0 0 .181.428.016.016 0 0 0 .017.017 5.015 5.015 0 0 0 .28.51v.017a2.34 2.34 0 0 0 .181.247 2.293 2.293 0 0 0 .181.247 2.845 2.845 0 0 0 .2.23 4.374 4.374 0 0 0 5.6.494v.033a4.3 4.3 0 0 0 1.856-3.376.8.8 0 0 0 .017-.2V6.473a2.081 2.081 0 0 0 .017-.543m-1.845 12.089a4.544 4.544 0 0 1-4.546 4.546H6.423a4.555 4.555 0 0 1-4.546-4.546v-4.711A6 6 0 0 1 0 12.04v5.979a6.432 6.432 0 0 0 6.423 6.424h22.17A6.418 6.418 0 0 0 35 18.019v-5.962a6.622 6.622 0 0 1-1.878 1.268z" style="fill:#707070"/>
    </g>
</svg>
