<svg data-name="Group 28" xmlns="http://www.w3.org/2000/svg" width="35" height="24.447" viewBox="0 0 35 24.447">
    <defs>
        <clipPath id="tnyi4sf30a">
            <path data-name="Rectangle 60" style="fill:#707070" d="M0 0h35v24.447H0z"/>
        </clipPath>
    </defs>
    <g data-name="Group 27" style="clip-path:url(#tnyi4sf30a)">
        <path data-name="Path 2205" d="M35 11.573v6.454a6.425 6.425 0 0 1-6.4 6.42H6.421A6.429 6.429 0 0 1 0 18.027V6.42A6.429 6.429 0 0 1 6.421 0h22.158a6.41 6.41 0 0 1 6.388 5.926h-1.86a4.575 4.575 0 0 0-4.528-4.066H6.421A4.553 4.553 0 0 0 1.877 6.4v11.61a4.553 4.553 0 0 0 4.544 4.544h22.158a4.553 4.553 0 0 0 4.544-4.544v-6.437z" style="fill:#707070"/>
        <path data-name="Path 2206" d="M19.357 11.011v3.408a4.149 4.149 0 1 1-4.165-4.148h3.424L17.085 11.8h-1.876a2.617 2.617 0 1 0 2.617 2.617v-1.891z" transform="translate(-5.99 -5.562)" style="fill:#707070"/>
        <path data-name="Path 2207" d="M22.384 38.576H9.987a.938.938 0 0 1-.938-.938.928.928 0 0 1 .938-.938h12.4a.938.938 0 0 1 .938.938.928.928 0 0 1-.938.938" transform="translate(-4.9 -19.874)" style="fill:#707070"/>
        <path data-name="Path 2208" d="M54.358 38.576h-8.281a.938.938 0 0 1-.938-.938.928.928 0 0 1 .938-.938h8.281a.938.938 0 0 1 .938.938.928.928 0 0 1-.938.938" transform="translate(-24.445 -19.874)" style="fill:#707070"/>
    </g>
</svg>
