<svg data-name="Group 32" xmlns="http://www.w3.org/2000/svg" width="35" height="24.449" viewBox="0 0 35 24.449">
    <defs>
        <clipPath id="6pqxy75qca">
            <path data-name="Rectangle 62" style="fill:#707070" d="M0 0h35v24.449H0z"/>
        </clipPath>
    </defs>
    <path data-name="Rectangle 61" transform="translate(.313 9.968)" style="fill:#707070" d="M0 0h34.687v2.687H0z"/>
    <g data-name="Group 31">
        <g data-name="Group 30" style="clip-path:url(#6pqxy75qca)">
            <path data-name="Path 2209" d="M14.3 38.5h8.281a.928.928 0 0 0 .938-.939.938.938 0 0 0-.938-.938H14.3a.938.938 0 0 0 0 1.877" transform="translate(-7.234 -19.834)" style="fill:#707070"/>
            <path data-name="Path 2210" d="M28.6 0H6.421A6.429 6.429 0 0 0 0 6.421v11.607a6.429 6.429 0 0 0 6.421 6.421h22.158a6.411 6.411 0 0 0 6.388-5.927 4.84 4.84 0 0 0 .033-.494v-5.812h-1.877v5.8c0 .165-.017.33-.017.494a4.575 4.575 0 0 1-4.527 4.066h-1.91v-10.36h6.454V10.34h-6.454V8.446h6.454V6.569h-6.454V1.877h1.91a4.553 4.553 0 0 1 4.544 4.544v2.025H35V6.421A6.426 6.426 0 0 0 28.6 0m-7.561 22.572H6.421a4.553 4.553 0 0 1-4.544-4.544v-5.812h19.162zm0-12.232H1.876V8.446h19.163zm0-3.77H1.877v-.149a4.553 4.553 0 0 1 4.544-4.544h14.618zm3.754 16h-1.877V12.216h1.877zm0-12.232h-1.877V8.446h1.877zm0-3.77h-1.877V1.877h1.877z" style="fill:#707070"/>
        </g>
    </g>
</svg>
