<svg xmlns="http://www.w3.org/2000/svg" width="123.784" height="33.678" viewBox="0 0 123.784 33.678">
    <defs>
        <clipPath id="babypraqia">
            <path data-name="Rectangle 31" style="fill:#fff" d="M0 0h123.784v33.678H0z"/>
        </clipPath>
    </defs>
    <g data-name="Group 12">
        <path data-name="Path 920" d="M0 0v33.637h9.46V22.074h11.773L13.749 13.2H9.46V8.914H24.6V0z" style="fill:#fff"/>
        <path data-name="Path 921" d="M59.526.04v8.872h9.755v24.723H78.7V8.912h9.712V.04z" transform="translate(2.87 .002)" style="fill:#fff"/>
        <g data-name="Group 11">
            <g data-name="Group 10" style="clip-path:url(#babypraqia)">
                <path data-name="Path 922" d="M49.264 16.816c0 5.046-3.027 7.9-7.526 7.9h-.084c-4.5 0-7.526-2.9-7.526-7.9 0-5.129 2.985-7.9 7.568-7.9h7.568L58.766.04h-16.65c-10.091 0-17.408 6.644-17.408 16.734 0 9.755 6.349 16.146 15.683 16.819a6.928 6.928 0 0 0 .968.084h.757a6.928 6.928 0 0 0 .968-.084c9.291-.673 15.64-7.064 15.682-16.734V1.847l-9.5 8.872z" transform="translate(1.191 .002)" style="fill:#fff"/>
                <path data-name="Path 923" d="M9.025 12.595 20.8 21.467v-8.872z" transform="translate(.435 .607)" style="fill:#ffae00"/>
                <path data-name="Path 924" d="M105.879 24.763h-.042c-4.5 0-7.526-2.9-7.526-7.948 0-5.129 2.985-7.9 7.568-7.9h11.226L119.5.04h-13.284c-10.091 0-17.408 6.644-17.408 16.734 0 10.344 7.149 16.9 17.408 16.9h12.067v-8.911z" transform="translate(4.282 .002)" style="fill:#fff"/>
            </g>
        </g>
    </g>
</svg>
