<svg data-name="Group 168" xmlns="http://www.w3.org/2000/svg" width="35" height="31.762" viewBox="0 0 35 31.762">
    <defs>
        <clipPath id="3hmj8dq2na">
            <path data-name="Rectangle 113" style="fill:#707070" d="M0 0h35v31.762H0z"/>
        </clipPath>
    </defs>
    <g data-name="Group 167" style="clip-path:url(#3hmj8dq2na)">
        <path data-name="Path 2244" d="M20.7 25.432V28.6h3.121v3.162H11.175v-3.14h3.111v-3.19H3.413A3.2 3.2 0 0 1 0 22.034V3.369A3.178 3.178 0 0 1 2.58.058 4.2 4.2 0 0 1 3.4 0h28.205A3.182 3.182 0 0 1 35 3.411v18.591a3.2 3.2 0 0 1-3.453 3.43H20.7zM31.782 3.191H3.217v19.046h28.565z" style="fill:#707070"/>
        <path data-name="Rectangle 108" transform="translate(6.404 6.379)" style="fill:#707070" d="M0 0h14.248v7.914H0z"/>
        <path data-name="Rectangle 109" transform="translate(22.299 11.15)" style="fill:#707070" d="M0 0h6.311v7.897H0z"/>
        <path data-name="Rectangle 110" transform="translate(14.342 15.913)" style="fill:#707070" d="M0 0h6.324v3.131H0z"/>
        <path data-name="Rectangle 111" transform="translate(22.299 6.38)" style="fill:#707070" d="M0 0h6.31v3.128H0z"/>
        <path data-name="Rectangle 112" transform="translate(6.39 15.918)" style="fill:#707070" d="M0 0h6.312v3.131H0z"/>
    </g>
</svg>
