<svg xmlns="http://www.w3.org/2000/svg" width="43" height="26.184" viewBox="0 0 43 26.184">
    <defs>
        <clipPath id="kbnrg0ykma">
            <path data-name="Rectangle 90" style="fill:#707070" d="M0 0h43v26.184H0z"/>
        </clipPath>
    </defs>
    <g data-name="Group 82">
        <g data-name="Group 81" style="clip-path:url(#kbnrg0ykma)">
            <path data-name="Path 2234" d="M46.46 34.33h-3.441a6.872 6.872 0 0 1-6.793 5.876H14.559a6.89 6.89 0 0 1-6.881-6.882V28.1h2.011v5.223a4.88 4.88 0 0 0 4.87 4.87h21.685a4.854 4.854 0 0 0 4.746-3.863h-3.158a.437.437 0 0 1-.441-.441.524.524 0 0 1 .088-.264l3.621-4.958.4-.567.282-.388a.45.45 0 0 1 .635-.088.213.213 0 0 1 .088.088l.282.388.317.423 3.723 5.082a.449.449 0 0 1-.106.617.3.3 0 0 1-.264.106" transform="translate(-3.91 -14.022)" style="fill:#707070"/>
            <path data-name="Path 2235" d="M39.2 6.881V12.1h-2.014V6.881c0-.177-.018-.353-.018-.529a4.9 4.9 0 0 0-4.852-4.358H10.649a4.874 4.874 0 0 0-4.764 3.864h3.194a.437.437 0 0 1 .441.441.525.525 0 0 1-.088.265l-3.653 5.011-.37.511-.283.388a.448.448 0 0 1-.635.088.213.213 0 0 1-.088-.088l-.282-.388-.353-.476L.08 6.581a.45.45 0 0 1 .106-.618.434.434 0 0 1 .265-.088h3.405A6.846 6.846 0 0 1 10.649 0h21.685a6.87 6.87 0 0 1 6.846 6.352c0 .177.018.353.018.529" style="fill:#707070"/>
            <path data-name="Path 2236" d="M43.069 16c.229-1.57-.812-2.488-2.329-3.123a.741.741 0 0 1-.423-.865l.247-1.024a.743.743 0 1 0-1.429-.406.065.065 0 0 1-.018.053l-.406 1.606c-.388-.088-.776-.194-1.164-.282l.406-1.623a.745.745 0 0 0-1.447-.353l-.406 1.654c-.318-.071-.635-.141-.935-.212l-1.27-.317a.726.726 0 0 0-.9.547l-.212.829s1.077.247 1.059.264a.758.758 0 0 1 .67.847l-.688 2.735-.953 3.811a.536.536 0 0 1-.67.353c.018.018-1.059-.264-1.059-.264l-.37.847a.75.75 0 0 0 .388.988.255.255 0 0 0 .124.035l1.041.264c.353.088.688.177 1.041.265l-.423 1.694a.745.745 0 0 0 1.447.353l.423-1.659c.388.106.776.212 1.164.3l-.423 1.623a.745.745 0 0 0 1.446.354l.247-1.023a.736.736 0 0 1 .812-.565c2.153.317 3.758-.018 4.482-2.064a2.546 2.546 0 0 0-1.111-3.423l-.211-.105A2.272 2.272 0 0 0 43.069 16m-3.317 4.658c-.37 1.464-2.47 1.094-3.758.776a.756.756 0 0 1-.547-.9l.441-1.765a.739.739 0 0 1 .9-.547c1.306.283 3.353.882 2.964 2.435m.459-4.694c-.317 1.288-1.958 1.058-3.035.794a.742.742 0 0 1-.547-.9L37 14.39a.748.748 0 0 1 .9-.547c1.076.247 2.646.776 2.311 2.117" transform="translate(-15.64 -4.791)" style="fill:#707070"/>
        </g>
    </g>
</svg>
