<svg xmlns="http://www.w3.org/2000/svg" width="41.879" height="41.879" viewBox="0 0 41.879 41.879">
    <g data-name="Group 988" style="opacity:.5">
        <g data-name="Group 988">
            <path data-name="Path 2294" d="M18.861 28.6a.826.826 0 0 1-.717-.415l-6.468-11.261L.415 10.455a.827.827 0 0 1 .152-1.5L27.512.043a.827.827 0 0 1 1.044 1.044l-8.91 26.945a.826.826 0 0 1-.7.563.789.789 0 0 1-.085.005zM2.842 9.942l9.851 5.658a.826.826 0 0 1 .305.305l5.659 9.851L26.47 2.129z" style="fill:#313131;stroke:#313131" transform="rotate(45 9.6 25.626)"/>
        </g>
        <g data-name="Group 989">
            <path data-name="Path 2295" d="M.827 17.143a.827.827 0 0 1-.584-1.411L15.731.242a.827.827 0 0 1 1.169 1.17L1.411 16.9a.821.821 0 0 1-.584.243z" style="stroke-width:.5px;fill:#313131;stroke:#313131" transform="rotate(45 3.87 39.453)"/>
        </g>
    </g>
</svg>
