<svg xmlns="http://www.w3.org/2000/svg" width="35.299" height="31.16" viewBox="0 0 35.299 31.16">
    <g data-name="Group 153">
        <path data-name="Path 2232" d="M34.977 12.35a6.4 6.4 0 0 0-6.389-5.928v-.016c0-.148 0-.313-.016-.477A6.4 6.4 0 0 0 22.182 0h-9.338a6.43 6.43 0 0 0-6.421 6.406A6.431 6.431 0 0 0 0 12.828v11.609a6.431 6.431 0 0 0 6.423 6.423h22.164a6.417 6.417 0 0 0 6.406-6.422v-11.61a2.328 2.328 0 0 0-.017-.478M12.844 1.861h9.337a4.562 4.562 0 0 1 4.529 4.067 4.887 4.887 0 0 1 .017.494v9.732a4.543 4.543 0 0 1-4.545 4.546h-9.338A4.554 4.554 0 0 1 8.3 16.154V6.406a4.554 4.554 0 0 1 4.545-4.545m20.3 22.593A4.544 4.544 0 0 1 28.6 29H6.423a4.554 4.554 0 0 1-4.545-4.545v-11.61A4.554 4.554 0 0 1 6.422 8.3v7.838a6.431 6.431 0 0 0 6.422 6.423h9.337a6.417 6.417 0 0 0 6.406-6.423V8.283h.013a4.562 4.562 0 0 1 4.528 4.067 4.9 4.9 0 0 1 .017.494z" transform="translate(.15 .15)" style="stroke-width:.3px;fill:#707070;stroke:#707070"/>
        <path data-name="Path 2233" d="M29.747 15.763h7.616a1.344 1.344 0 0 0 0-2.688h-7.616a1.343 1.343 0 0 0-1.347 1.344 1.359 1.359 0 0 0 1.344 1.344" transform="translate(-15.893 -6.699)" style="fill:#707070;stroke:#707070"/>
    </g>
</svg>
