<svg xmlns="http://www.w3.org/2000/svg" width="42.157" height="36.857" viewBox="0 0 42.157 36.857">
    <path data-name="Path 2240" d="M29.677 20.8A12.266 12.266 0 0 0 17.5 32.977a12.436 12.436 0 0 0 3.41 8.605 10.183 10.183 0 0 1-3.41 4.059 13.762 13.762 0 0 0 6.982-1.624 14.216 14.216 0 0 0 5.2 1.137 12.177 12.177 0 0 0 0-24.355zM23.02 35.088a2.111 2.111 0 1 1 2.111-2.111 2.047 2.047 0 0 1-2.111 2.111zm6.657 0a2.111 2.111 0 1 1 2.111-2.111 2.149 2.149 0 0 1-2.111 2.111zm6.657 0a2.111 2.111 0 1 1 2.111-2.111 2.149 2.149 0 0 1-2.11 2.111z" transform="translate(-8.563 -8.785)" style="fill:#707070"/>
    <path data-name="Path 2241" d="m53.731 31.585-1.3-.162a17.911 17.911 0 0 0-5.358-12.34A19.372 19.372 0 0 0 33.11 13.4a19.05 19.05 0 0 0-19.321 18.185l-1.3.162c-.487 0-.649 2.435-.325 5.2s.812 5.033 1.3 5.033l3.41-.325a1.029 1.029 0 0 0 .812-.974l-.812-8.605a1.029 1.029 0 0 0-.974-.812h-.487a17.373 17.373 0 0 1 17.7-16.237 17.908 17.908 0 0 1 12.827 5.2 16.489 16.489 0 0 1 4.868 11.033h-.487a1.029 1.029 0 0 0-.974.812l-.812 8.605a1.029 1.029 0 0 0 .812.974l3.41.325c.487 0 1.137-2.273 1.3-5.033s.161-5.196-.326-5.358z" transform="translate(-11.996 -13.4)" style="fill:#707070"/>
</svg>
