<svg xmlns="http://www.w3.org/2000/svg" width="35" height="34.649" viewBox="0 0 35 34.649">
    <path d="M11.528 3.2H4.036a.923.923 0 0 0-.936.936v7.609a1.007 1.007 0 0 0 .936.936h7.609a1.007 1.007 0 0 0 .936-.936V4.136a1.125 1.125 0 0 0-1.053-.936zm-.936 7.492H4.973V5.073h5.619zm.936 17.676H4.036a1.007 1.007 0 0 0-.936.932v7.609a1.007 1.007 0 0 0 .936.936h7.609a1.007 1.007 0 0 0 .936-.936V29.3a1.125 1.125 0 0 0-1.053-.933zm-.936 7.609H4.973v-5.62h5.619zm4.8-28.094a1.3 1.3 0 0 1 1.288-1.288h20.132a1.288 1.288 0 1 1 0 2.575h-20.25a1.2 1.2 0 0 1-1.171-1.288zm22.591 12.642a1.3 1.3 0 0 1-1.283 1.287H16.562a1.288 1.288 0 0 1 0-2.575H36.7a1.3 1.3 0 0 1 1.283 1.288zm0 12.642a1.3 1.3 0 0 1-1.283 1.287H16.562a1.288 1.288 0 0 1 0-2.575H36.7a1.3 1.3 0 0 1 1.283 1.288zM11.528 15.842H4.036a1.007 1.007 0 0 0-.936.936v7.609a1.007 1.007 0 0 0 .936.936h7.609a1.007 1.007 0 0 0 .936-.936v-7.608a1.025 1.025 0 0 0-1.053-.937zm-1.054 3.512-3.16 3.16a.608.608 0 0 1-.468.234.887.887 0 0 1-.468-.234l-1.171-1.17a.712.712 0 0 1 0-.936.712.712 0 0 1 .936 0l.7.7L9.655 18.3a.712.712 0 0 1 .936 0c.118.469.118.82-.116 1.054z" transform="translate(-3.1 -3.2)" style="fill:#707070"/>
</svg>
