<svg xmlns="http://www.w3.org/2000/svg" width="35" height="32.703" viewBox="0 0 35 32.703">
    <path d="M34.6 3H4.3a2.4 2.4 0 0 0-2.4 2.289v21.039a2.3 2.3 0 0 0 2.289 2.289h11.119v3.488h-2.943a1.21 1.21 0 0 0-1.2 1.2v1.2a1.21 1.21 0 0 0 1.2 1.2h14.062a1.21 1.21 0 0 0 1.2-1.2v-1.2a1.21 1.21 0 0 0-1.2-1.2h-2.943v-3.487H34.6a2.3 2.3 0 0 0 2.289-2.289V5.289A2.234 2.234 0 0 0 34.6 3zm-8.173 30.414v1.2H12.365v-1.2zm-4.033-1.2h-5.887v-3.487h5.887zm5.887-8.176a1.722 1.722 0 0 1-1.744 1.744H6.587a1.722 1.722 0 0 1-1.744-1.744V7.687a1.722 1.722 0 0 1 1.744-1.744h19.84a1.722 1.722 0 0 1 1.744 1.744v16.352zm6.323-2.4v.218l-1.417 3.488a.618.618 0 0 1-1.09 0l-1.417-3.488V10.631h4.033v11.01zm0-12.209H30.57V7.251a1.259 1.259 0 0 1 1.308-1.308H33.3a1.259 1.259 0 0 1 1.3 1.308zM10.4 21.314a1.326 1.326 0 0 1-1.308 1.308 1.308 1.308 0 0 1 0-2.616 1.326 1.326 0 0 1 1.308 1.308zm0-5.451a1.326 1.326 0 0 1-1.308 1.308 1.407 1.407 0 0 1-1.308-1.308 1.407 1.407 0 0 1 1.308-1.308 1.326 1.326 0 0 1 1.308 1.308zm0-5.451a1.326 1.326 0 0 1-1.308 1.308 1.407 1.407 0 0 1-1.308-1.308A1.407 1.407 0 0 1 9.095 9.1a1.326 1.326 0 0 1 1.305 1.313zm1.417-1.09h13.52v2.071H11.82zm0 5.451h13.52v2.071H11.82zm0 5.451h13.52V22.3H11.82z" transform="translate(-1.9 -3)" style="fill:#707070"/>
</svg>
